<svg width="20" height="20" viewBox="0 0 20 20" fill="none" xmlns="http://www.w3.org/2000/svg">
<path d="M15 6.66669C16.3807 6.66669 17.5 5.5474 17.5 4.16669C17.5 2.78598 16.3807 1.66669 15 1.66669C13.6193 1.66669 12.5 2.78598 12.5 4.16669C12.5 5.5474 13.6193 6.66669 15 6.66669Z" stroke="#443636" stroke-width="2" stroke-linecap="round" stroke-linejoin="round"/>
<path d="M5 12.5C6.38071 12.5 7.5 11.3807 7.5 10C7.5 8.61929 6.38071 7.5 5 7.5C3.61929 7.5 2.5 8.61929 2.5 10C2.5 11.3807 3.61929 12.5 5 12.5Z" stroke="#443636" stroke-width="2" stroke-linecap="round" stroke-linejoin="round"/>
<path d="M15 18.3333C16.3807 18.3333 17.5 17.214 17.5 15.8333C17.5 14.4526 16.3807 13.3333 15 13.3333C13.6193 13.3333 12.5 14.4526 12.5 15.8333C12.5 17.214 13.6193 18.3333 15 18.3333Z" stroke="#443636" stroke-width="2" stroke-linecap="round" stroke-linejoin="round"/>
<path d="M7.15833 11.2584L12.85 14.575" stroke="#443636" stroke-width="2" stroke-linecap="round" stroke-linejoin="round"/>
<path d="M12.8417 5.42499L7.15833 8.74165" stroke="#443636" stroke-width="2" stroke-linecap="round" stroke-linejoin="round"/>
</svg>
