<svg width="11" height="18" viewBox="0 0 11 18" fill="none" xmlns="http://www.w3.org/2000/svg">
<path d="M2 14C0.9 14 0 14.9 0 16C0 17.1 0.9 18 2 18C3.1 18 4 17.1 4 16C4 14.9 3.1 14 2 14ZM9 4C10.1 4 11 3.1 11 2C11 0.9 10.1 0 9 0C7.9 0 7 0.9 7 2C7 3.1 7.9 4 9 4ZM2 7C0.9 7 0 7.9 0 9C0 10.1 0.9 11 2 11C3.1 11 4 10.1 4 9C4 7.9 3.1 7 2 7ZM9 7C7.9 7 7 7.9 7 9C7 10.1 7.9 11 9 11C10.1 11 11 10.1 11 9C11 7.9 10.1 7 9 7ZM9 14C7.9 14 7 14.9 7 16C7 17.1 7.9 18 9 18C10.1 18 11 17.1 11 16C11 14.9 10.1 14 9 14ZM2 0C0.9 0 0 0.9 0 2C0 3.1 0.9 4 2 4C3.1 4 4 3.1 4 2C4 0.9 3.1 0 2 0Z" fill="#443636"/>
</svg>
