<svg width="26" height="26" viewBox="0 0 26 26" fill="none" xmlns="http://www.w3.org/2000/svg">
<path d="M11.7371 3.54651H3.40205C2.77045 3.54651 2.16473 3.79741 1.71812 4.24401C1.27151 4.69062 1.02061 5.29634 1.02061 5.92794V22.598C1.02061 23.2296 1.27151 23.8353 1.71812 24.2819C2.16473 24.7285 2.77045 24.9794 3.40205 24.9794H20.0721C20.7037 24.9794 21.3094 24.7285 21.756 24.2819C22.2026 23.8353 22.4535 23.2296 22.4535 22.598V14.263M20.6674 1.76043C21.1411 1.28673 21.7836 1.02061 22.4535 1.02061C23.1234 1.02061 23.7659 1.28673 24.2396 1.76043C24.7133 2.23413 24.9794 2.8766 24.9794 3.54651C24.9794 4.21641 24.7133 4.85888 24.2396 5.33258L12.9278 16.6444L8.16491 17.8351L9.35563 13.0722L20.6674 1.76043Z" stroke="black" stroke-width="2" stroke-linecap="round" stroke-linejoin="round"/>
</svg>
