<svg width="19" height="19" viewBox="0 0 19 19" fill="none" xmlns="http://www.w3.org/2000/svg">
<path d="M7.75685 2.96329V14.7293C7.75685 15.6706 7.37335 16.5334 6.76326 17.1609L6.72842 17.1958C6.64998 17.2742 6.56282 17.3527 6.48438 17.4137C6.22292 17.6403 5.92657 17.8146 5.62152 17.9366C5.52565 17.9802 5.42979 18.0151 5.33392 18.0499C4.99402 18.1632 4.62796 18.2155 4.27062 18.2155C4.0353 18.2155 3.79999 18.1894 3.57339 18.1458C3.46009 18.1196 3.34677 18.0935 3.23347 18.0586C3.09402 18.0151 2.96329 17.9715 2.83256 17.9105C2.83256 17.9017 2.83255 17.9017 2.82384 17.9105C2.5798 17.7884 2.34449 17.649 2.1266 17.4834L2.11788 17.4747C2.00458 17.3875 1.9 17.3004 1.80413 17.1958C1.70826 17.0912 1.61237 16.9866 1.5165 16.8733C1.35091 16.6554 1.21147 16.4201 1.08945 16.1761C1.09817 16.1674 1.09817 16.1674 1.08945 16.1674C1.08945 16.1674 1.08944 16.1586 1.08073 16.1499C1.02843 16.0279 0.984852 15.8972 0.941274 15.7664C0.906412 15.6531 0.88026 15.5398 0.854113 15.4265C0.810535 15.1999 0.7844 14.9646 0.7844 14.7293V2.96329C0.7844 1.65596 1.65596 0.7844 2.96329 0.7844H5.57796C6.88529 0.7844 7.75685 1.65596 7.75685 2.96329Z" stroke="#443636" stroke-width="1.5" stroke-linecap="round" stroke-linejoin="round"/>
<path d="M18.2156 13.422V16.0366C18.2156 17.344 17.344 18.2155 16.0367 18.2155H4.27067C4.628 18.2155 4.99406 18.1632 5.33396 18.0499C5.42984 18.0151 5.5257 17.9802 5.62157 17.9366C5.92661 17.8146 6.22296 17.6403 6.48442 17.4137C6.56286 17.3527 6.65002 17.2742 6.72846 17.1958L6.7633 17.1609L12.6899 11.2431H16.0367C17.344 11.2431 18.2156 12.1146 18.2156 13.422Z" stroke="#443636" stroke-width="1.5" stroke-linecap="round" stroke-linejoin="round"/>
<path d="M3.2335 18.0587C2.71057 17.9018 2.2138 17.6142 1.80416 17.1958C1.38582 16.7862 1.09819 16.2894 0.941306 15.7665C1.28121 16.8559 2.14406 17.7187 3.2335 18.0587Z" stroke="#443636" stroke-width="1.5" stroke-linecap="round" stroke-linejoin="round"/>
<path d="M15.0518 8.88113L12.6899 11.2431L6.76328 17.1609C7.37337 16.5334 7.75687 15.6706 7.75687 14.7293V6.31004L10.1188 3.94813C11.0426 3.02429 12.2802 3.02429 13.2041 3.94813L15.0518 5.79583C15.9756 6.71968 15.9756 7.95728 15.0518 8.88113Z" stroke="#443636" stroke-width="1.5" stroke-linecap="round" stroke-linejoin="round"/>
<path d="M4.27062 15.6008C4.75197 15.6008 5.14218 15.2106 5.14218 14.7293C5.14218 14.2479 4.75197 13.8577 4.27062 13.8577C3.78928 13.8577 3.39907 14.2479 3.39907 14.7293C3.39907 15.2106 3.78928 15.6008 4.27062 15.6008Z" stroke="#443636" stroke-width="1.5" stroke-linecap="round" stroke-linejoin="round"/>
</svg>
