<svg width="358" height="64" viewBox="0 0 358 64" fill="none" xmlns="http://www.w3.org/2000/svg">
<rect width="358" height="64" rx="8" fill="white" fill-opacity="0.9"/>
<path d="M19 24H27C28.0609 24 29.0783 24.4214 29.8284 25.1716C30.5786 25.9217 31 26.9391 31 28C31 29.0609 30.5786 30.0783 29.8284 30.8284C29.0783 31.5786 28.0609 32 27 32H19V24Z" stroke="#443636" stroke-width="2" stroke-linecap="round" stroke-linejoin="round"/>
<path d="M19 32H28C29.0609 32 30.0783 32.4214 30.8284 33.1716C31.5786 33.9217 32 34.9391 32 36C32 37.0609 31.5786 38.0783 30.8284 38.8284C30.0783 39.5786 29.0609 40 28 40H19V32Z" stroke="#443636" stroke-width="2" stroke-linecap="round" stroke-linejoin="round"/>
<path d="M76 24H67" stroke="#443636" stroke-width="2" stroke-linecap="round" stroke-linejoin="round"/>
<path d="M71 40H62" stroke="#443636" stroke-width="2" stroke-linecap="round" stroke-linejoin="round"/>
<path d="M72 24L66 40" stroke="#443636" stroke-width="2" stroke-linecap="round" stroke-linejoin="round"/>
<path d="M107 23V30C107 31.5913 107.632 33.1174 108.757 34.2426C109.883 35.3679 111.409 36 113 36C114.591 36 116.117 35.3679 117.243 34.2426C118.368 33.1174 119 31.5913 119 30V23" stroke="#443636" stroke-width="2" stroke-linecap="round" stroke-linejoin="round"/>
<path d="M105 41H121" stroke="#443636" stroke-width="2" stroke-linecap="round" stroke-linejoin="round"/>
<path d="M152 40H149V39.9C149 39.4 149.4 39 149.9 39C151.3 39 152.5 38.1 152.9 36.8C153.3 35.2 152.4 33.5 150.8 33.1C149.5 32.7 148.1 33.3 147.4 34.5C147.1 35 147.3 35.6 147.8 35.9C148.3 36.2 148.9 36 149.2 35.5C149.5 35 150.1 34.9 150.6 35.2C150.7 35.3 150.8 35.3 150.8 35.4C151 35.7 151 36 151 36.3C150.8 36.7 150.4 37 150 37C148.3 37 147 38.3 147 39.9V41C147 41.6 147.4 42 148 42H152C152.6 42 153 41.6 153 41C153 40.4 152.6 40 152 40ZM156 27H166C166.6 27 167 26.6 167 26C167 25.4 166.6 25 166 25H156C155.4 25 155 25.4 155 26C155 26.6 155.4 27 156 27ZM152 29H151V23C151 22.4 150.6 22 150 22C149.4 22 149 22.4 149 23V24H148C147.4 24 147 24.4 147 25C147 25.6 147.4 26 148 26H149V29H148C147.4 29 147 29.4 147 30C147 30.6 147.4 31 148 31H152C152.6 31 153 30.6 153 30C153 29.4 152.6 29 152 29ZM166 36H156C155.4 36 155 36.4 155 37C155 37.6 155.4 38 156 38H166C166.6 38 167 37.6 167 37C167 36.4 166.6 36 166 36Z" fill="#443636"/>
<path d="M205 38L211 32L205 26" stroke="#443636" stroke-width="2" stroke-linecap="round" stroke-linejoin="round"/>
<path d="M197 26L191 32L197 38" stroke="#443636" stroke-width="2" stroke-linecap="round" stroke-linejoin="round"/>
<path d="M252 23H238C236.895 23 236 23.8954 236 25V39C236 40.1046 236.895 41 238 41H252C253.105 41 254 40.1046 254 39V25C254 23.8954 253.105 23 252 23Z" stroke="#443636" stroke-width="2" stroke-linecap="round" stroke-linejoin="round"/>
<path d="M241.5 30C242.328 30 243 29.3284 243 28.5C243 27.6716 242.328 27 241.5 27C240.672 27 240 27.6716 240 28.5C240 29.3284 240.672 30 241.5 30Z" stroke="#443636" stroke-width="2" stroke-linecap="round" stroke-linejoin="round"/>
<path d="M254 35L249 30L238 41" stroke="#443636" stroke-width="2" stroke-linecap="round" stroke-linejoin="round"/>
<path d="M278 24V30H284" stroke="#443636" stroke-width="2" stroke-linecap="round" stroke-linejoin="round"/>
<path d="M280.51 34.9999C281.158 36.8403 282.387 38.4201 284.012 39.5013C285.636 40.5825 287.568 41.1065 289.516 40.9944C291.464 40.8823 293.323 40.1401 294.812 38.8797C296.302 37.6193 297.341 35.9089 297.774 34.0063C298.207 32.1037 298.01 30.1119 297.213 28.331C296.415 26.5502 295.061 25.0767 293.353 24.1327C291.645 23.1887 289.677 22.8252 287.745 23.0971C285.812 23.3689 284.021 24.2614 282.64 25.6399L278 29.9999" stroke="#443636" stroke-width="2" stroke-linecap="round" stroke-linejoin="round"/>
<path d="M344 24V30H338" stroke="#443636" stroke-width="2" stroke-linecap="round" stroke-linejoin="round"/>
<path d="M341.49 35C340.84 36.8399 339.61 38.4187 337.984 39.4985C336.359 40.5783 334.426 41.1006 332.478 40.9866C330.53 40.8726 328.672 40.1286 327.184 38.8667C325.695 37.6047 324.657 35.8932 324.226 33.9901C323.795 32.0869 323.994 30.0952 324.794 28.3151C325.593 26.535 326.95 25.0629 328.658 24.1207C330.367 23.1784 332.336 22.8171 334.268 23.0912C336.2 23.3652 337.991 24.2598 339.37 25.64L344 30" stroke="#443636" stroke-width="2" stroke-linecap="round" stroke-linejoin="round"/>
</svg>
